<svg width="50" height="38" viewBox="0 0 50 38" fill="none" xmlns="http://www.w3.org/2000/svg">
<g clip-path="url(#clip0_1_779)">
<path d="M50 1.38889C50 1.75725 49.8537 2.11052 49.5932 2.37098C49.3327 2.63145 48.9795 2.77778 48.6111 2.77778C48.2427 2.77778 47.8895 2.63145 47.629 2.37098C47.3685 2.11052 47.2222 1.75725 47.2222 1.38889C47.2222 1.02053 47.3685 0.667264 47.629 0.406796C47.8895 0.146329 48.2427 0 48.6111 0C48.9795 0 49.3327 0.146329 49.5932 0.406796C49.8537 0.667264 50 1.02053 50 1.38889Z" fill="white"/>
<path fill-rule="evenodd" clip-rule="evenodd" d="M12.7315 37.7722C5.7 37.7722 0 32.0722 0 25.0407V0.925903H4.62963V25.0407C4.62963 27.1895 5.48321 29.2502 7.00261 30.7696C8.522 32.289 10.5827 33.1426 12.7315 33.1426C17.262 33.1426 20.8333 29.6509 20.8333 25.2315H25.463V32.1759C25.463 32.4829 25.5849 32.7773 25.802 32.9943C26.019 33.2114 26.3134 33.3333 26.6204 33.3333C26.9273 33.3333 27.2217 33.2114 27.4388 32.9943C27.6558 32.7773 27.7778 32.4829 27.7778 32.1759V23.9583C26.9369 24.13 26.0683 24.1124 25.235 23.907C24.4018 23.7015 23.6246 23.3133 22.9599 22.7705C22.2951 22.2276 21.7595 21.5437 21.3917 20.7682C21.0239 19.9928 20.8332 19.1453 20.8333 18.287V6.71294C20.8333 5.17812 21.443 3.70617 22.5283 2.62089C23.6136 1.53561 25.0856 0.925903 26.6204 0.925903C28.1552 0.925903 29.6271 1.53561 30.7124 2.62089C31.7977 3.70617 32.4074 5.17812 32.4074 6.71294V32.1759C32.4074 32.4829 32.5293 32.7773 32.7464 32.9943C32.9635 33.2114 33.2578 33.3333 33.5648 33.3333C33.8718 33.3333 34.1662 33.2114 34.3832 32.9943C34.6003 32.7773 34.7222 32.4829 34.7222 32.1759V6.71294C34.7222 5.17812 35.3319 3.70617 36.4172 2.62089C37.5025 1.53561 38.9744 0.925903 40.5093 0.925903C42.0441 0.925903 43.516 1.53561 44.6013 2.62089C45.6866 3.70617 46.2963 5.17812 46.2963 6.71294V32.1759C46.2963 33.2506 45.997 34.3041 45.432 35.2183C44.867 36.1326 44.0586 36.8714 43.0973 37.352C42.136 37.8326 41.0599 38.0361 39.9895 37.9396C38.9192 37.8431 37.8968 37.4504 37.037 36.8055C36.0362 37.5585 34.8173 37.9648 33.5648 37.963C32.3124 37.9648 31.0934 37.5585 30.0926 36.8055C29.3961 37.3279 28.5907 37.6863 27.7365 37.8543C26.8822 38.0222 26.0011 37.9952 25.1587 37.7754C24.3163 37.5556 23.5344 37.1486 22.8711 36.5847C22.2078 36.0208 21.6803 35.3145 21.3278 34.5185C19.0537 36.5528 16.0287 37.7722 12.7315 37.7722ZM40.5093 33.3333C39.8704 33.3333 39.3518 32.8148 39.3518 32.1759V6.71294C39.3518 6.40598 39.4738 6.11159 39.6908 5.89453C39.9079 5.67748 40.2023 5.55554 40.5093 5.55554C40.8162 5.55554 41.1106 5.67748 41.3277 5.89453C41.5447 6.11159 41.6667 6.40598 41.6667 6.71294V32.1759C41.6667 32.8148 41.1481 33.3333 40.5093 33.3333ZM27.7778 18.287C27.7778 18.594 27.6558 18.8884 27.4388 19.1054C27.2217 19.3225 26.9273 19.4444 26.6204 19.4444C26.3134 19.4444 26.019 19.3225 25.802 19.1054C25.5849 18.8884 25.463 18.594 25.463 18.287V6.71294C25.463 6.40598 25.5849 6.11159 25.802 5.89453C26.019 5.67748 26.3134 5.55554 26.6204 5.55554C26.9273 5.55554 27.2217 5.67748 27.4388 5.89453C27.6558 6.11159 27.7778 6.40598 27.7778 6.71294V18.287Z" fill="white"/>
<path fill-rule="evenodd" clip-rule="evenodd" d="M6.94444 25.2315C6.94444 26.7663 7.55415 28.2382 8.63943 29.3235C9.72471 30.4088 11.1967 31.0185 12.7315 31.0185C14.2663 31.0185 15.7383 30.4088 16.8235 29.3235C17.9088 28.2382 18.5185 26.7663 18.5185 25.2315V6.71294C18.5185 5.17812 17.9088 3.70617 16.8235 2.62089C15.7383 1.53561 14.2663 0.925903 12.7315 0.925903C11.1967 0.925903 9.72471 1.53561 8.63943 2.62089C7.55415 3.70617 6.94444 5.17812 6.94444 6.71294V25.2315ZM12.7315 26.3889C12.0926 26.3889 11.5741 25.8703 11.5741 25.2315V6.71294C11.5741 6.40598 11.696 6.11159 11.9131 5.89453C12.1301 5.67747 12.4245 5.55553 12.7315 5.55553C13.0384 5.55553 13.3328 5.67747 13.5499 5.89453C13.7669 6.11159 13.8889 6.40598 13.8889 6.71294V25.2315C13.8889 25.8703 13.3704 26.3889 12.7315 26.3889Z" fill="white"/>
</g>
<defs>
<clipPath id="clip0_1_779">
<rect width="50" height="37.963" fill="white"/>
</clipPath>
</defs>
</svg>
